<svg xmlns="http://www.w3.org/2000/svg" viewBox="0 0 87.71 87.71"><defs><style>.cls-1{fill:#231f20;}</style></defs><g id="Layer_2" data-name="Layer 2"><g id="Layer_1-2" data-name="Layer 1"><rect class="cls-1" x="30.23" y="1.14" width="13.13" height="13.13" transform="translate(-0.79 7.19) rotate(-11.05)"/><rect class="cls-1" x="33.76" y="19.21" width="13.13" height="13.13" transform="translate(-4.19 8.21) rotate(-11.05)"/><rect class="cls-1" x="37.29" y="37.29" width="13.13" height="13.13" transform="translate(-7.59 9.22) rotate(-11.05)"/><rect class="cls-1" x="40.82" y="55.37" width="13.13" height="13.13" transform="translate(-10.99 10.23) rotate(-11.05)"/><rect class="cls-1" x="44.35" y="73.45" width="13.13" height="13.13" transform="translate(-14.39 11.24) rotate(-11.05)"/><rect class="cls-1" x="1.14" y="44.35" width="13.13" height="13.13" transform="translate(-40.8 68.23) rotate(-101.05)"/><rect class="cls-1" x="19.21" y="40.82" width="13.13" height="13.13" transform="translate(-15.79 81.77) rotate(-101.05)"/><rect class="cls-1" x="55.37" y="33.76" width="13.13" height="13.13" transform="translate(34.23 108.84) rotate(-101.05)"/><rect class="cls-1" x="73.45" y="30.23" width="13.13" height="13.13" transform="translate(59.23 122.38) rotate(-101.05)"/></g></g></svg>