<svg id="Layer_1" data-name="Layer 1" xmlns="http://www.w3.org/2000/svg" viewBox="0 0 462 186"><defs><style>.cls-1{fill:#231f20;}</style></defs><path class="cls-1" d="M143.31,72.69l5.55-1.53V42.21a7,7,0,0,0-.31-2.62A2.85,2.85,0,0,0,147,38.41l-4-2.2.45-6.16q5.78-.91,10.95-1.33t11.09-.42a40.68,40.68,0,0,1,13.19,1.75A13.45,13.45,0,0,1,186,35.52q2.33,3.72,2.32,9.88,0,8-5.74,12.54T166.87,62.5l-4.18-.15v5.77a6.35,6.35,0,0,0,.27,2.36,2.77,2.77,0,0,0,1.33,1.06l4.63,2.74-.3,6.16H143.69Zm30.25-19.46a36.08,36.08,0,0,0,.83-7.83q0-4.49-1.71-6.38c-1.14-1.27-3-1.9-5.51-1.9-.86,0-2.35.1-4.48.3V53.61a22.92,22.92,0,0,0,4.86.46A15.87,15.87,0,0,0,173.56,53.23Z"/><path class="cls-1" d="M196.7,76.49q-4.75-5-4.75-15.13A25.6,25.6,0,0,1,194.34,50a17.14,17.14,0,0,1,6.88-7.45,20.81,20.81,0,0,1,10.56-2.58q19.69,0,19.69,20.37,0,10-5.36,15.54t-15,5.58Q201.46,81.42,196.7,76.49ZM215,72.27a12.22,12.22,0,0,0,2.43-.88,32.61,32.61,0,0,0,.76-4.48,48.24,48.24,0,0,0,.3-5.25c0-4.1-.64-7.21-1.94-9.34a6.29,6.29,0,0,0-5.73-3.2,19.66,19.66,0,0,0-5.09.69,12.77,12.77,0,0,0-.84,3.68,50.3,50.3,0,0,0-.3,5.82c0,4.26.67,7.52,2,9.8a6.32,6.32,0,0,0,5.74,3.42A11.69,11.69,0,0,0,215,72.27Z"/><path class="cls-1" d="M235.88,79.6c.3-5,.63-8.64,1-11l4.34-.84,4.78,5.1a19.66,19.66,0,0,0,5.63.76,12.87,12.87,0,0,0,2.73-.23,4.72,4.72,0,0,0,.23-1.67,2.6,2.6,0,0,0-.42-1.52,6,6,0,0,0-1.86-1.45q-1.44-.83-5-2.58a46,46,0,0,1-6.83-4.22,12.21,12.21,0,0,1-3.39-3.84,10.14,10.14,0,0,1-1-4.71,11.64,11.64,0,0,1,4.52-9.65c3-2.38,7.11-3.57,12.27-3.57a33.78,33.78,0,0,1,6.73.72,32.27,32.27,0,0,1,6.35,1.94,98.67,98.67,0,0,1-.69,11l-3.95.61L256.17,49a21.15,21.15,0,0,0-5.78-.6c-.41,0-1.21.05-2.43.15a3.4,3.4,0,0,0-.23,1.44,3,3,0,0,0,.61,1.86,7.7,7.7,0,0,0,2.17,1.75q1.55.95,5,2.7a57.41,57.41,0,0,1,7.57,4.22,11.76,11.76,0,0,1,3.57,3.61,8.86,8.86,0,0,1,1,4.4,11.38,11.38,0,0,1-4.75,9.73q-4.74,3.49-13.11,3.5A54.25,54.25,0,0,1,235.88,79.6Z"/><path class="cls-1" d="M270.68,73.45l5.32-1.6V53.38a5.73,5.73,0,0,0-.26-2.17,3.6,3.6,0,0,0-1.33-1.1l-3.35-1.82.38-5.7c4.21-.81,7.46-1.41,9.77-1.79a46.57,46.57,0,0,1,6.35-.64A37.73,37.73,0,0,1,288.77,45V69.34a6.4,6.4,0,0,0,.23,2.13,3,3,0,0,0,1.29,1.14L294,74.74l-.31,5.7h-22.8Z"/><path class="cls-1" d="M303.06,78.12q-3.19-3.32-3.19-10.07V49.58h-5.32V44l13.68-12.46,4.4.53v8.59H325.4v9H312.63V65.31c0,2.43.35,4.06,1,4.87s2,1.21,4,1.21a50.35,50.35,0,0,0,7-.68l.91,7.75a32.89,32.89,0,0,1-6.11,2.13,27,27,0,0,1-6.5.83Q306.25,81.42,303.06,78.12Z"/><path class="cls-1" d="M329.58,73.45l5.32-1.6V53.38a5.47,5.47,0,0,0-.27-2.17,3.52,3.52,0,0,0-1.33-1.1L330,48.29l.38-5.7c4.21-.81,7.46-1.41,9.77-1.79a46.59,46.59,0,0,1,6.34-.64A36.51,36.51,0,0,1,347.67,45V69.34a6.4,6.4,0,0,0,.23,2.13,3,3,0,0,0,1.29,1.14l3.72,2.13-.3,5.7h-22.8Z"/><path class="cls-1" d="M356,51.1c-.56-1.37-.94-2.25-1.14-2.66a12.52,12.52,0,0,0-1.14-1.67l-1.3-1.67.38-4.41H372l.76,6.46-4.41,1.06,6.91,19.61,6.69-18a2.46,2.46,0,0,0,.15-.69.89.89,0,0,0-.68-.91l-3.57-1.52.68-6H393l.76,6.16L378.67,80.59l-10.94.83Z"/><path class="cls-1" d="M401.06,76q-4.83-5.39-4.83-14.89a25.3,25.3,0,0,1,2.36-11.36,16.76,16.76,0,0,1,6.68-7.26,19.85,19.85,0,0,1,10.11-2.51q8.6,0,13.19,5.47T432.94,61l-23.11,4.26a9.38,9.38,0,0,0,3,4.67A8.2,8.2,0,0,0,418,71.39a25.75,25.75,0,0,0,5.24-.64A45.32,45.32,0,0,0,429.37,69l1.74,7.53A23.35,23.35,0,0,1,423.82,80a31,31,0,0,1-9.05,1.37Q405.89,81.35,401.06,76ZM420.47,54.6a5.83,5.83,0,0,0-1.63-4.22,6,6,0,0,0-4.14-1.33,14,14,0,0,0-4.18.61,18.47,18.47,0,0,0-1.45,8.05Z"/><path class="cls-1" d="M142.93,143.93l5.55-1.52V113.3a7.07,7.07,0,0,0-.31-2.62,2.9,2.9,0,0,0-1.59-1.18l-4-2.28.38-6.76H167.4l.31,7.75-5.48,1.52v29.64a6.39,6.39,0,0,0,.27,2.36,2.93,2.93,0,0,0,1.41,1.06l3.87,2.36-.23,6.53H143.31Z"/><path class="cls-1" d="M172,144.46l4.71-1.37V124.63a6.14,6.14,0,0,0-.23-2.17,3,3,0,0,0-1.21-1.1l-3.35-1.83.23-5.7,2.06-.38a93.86,93.86,0,0,1,13.83-2,25.06,25.06,0,0,1,1,3.27,46,46,0,0,1,7-2.7,20.61,20.61,0,0,1,5.36-.8,13.89,13.89,0,0,1,5.55,1.11,8.92,8.92,0,0,1,3.88,2.92,45.52,45.52,0,0,1,7.79-3.08,24.89,24.89,0,0,1,6.57-1q6.24,0,9.2,3.58t3,10.86v15a6.37,6.37,0,0,0,.23,2.12,2.86,2.86,0,0,0,1.29,1.14l3.65,2.13-.3,5.7H221.51l-.38-7.22,3.65-1.06V129a39,39,0,0,0-.19-4.67,3.15,3.15,0,0,0-1.25-2.2,6,6,0,0,0-3.58-.8,53.16,53.16,0,0,0-6.61.68,31.5,31.5,0,0,1,.15,3.57v15a6.37,6.37,0,0,0,.23,2.12,3,3,0,0,0,1.37,1.14l3.72,2.13-.3,5.7H197.5l-.38-7.22,3.64-1.06V129a39.85,39.85,0,0,0-.19-4.75,3,3,0,0,0-1.25-2.16,6.13,6.13,0,0,0-3.5-.76,38.06,38.06,0,0,0-6.46.68v18.55a6.37,6.37,0,0,0,.23,2.12,2.88,2.88,0,0,0,1.22,1.14l3.72,2.13-.3,5.7H172.34Z"/><path class="cls-1" d="M243.1,160.8l4.71-1.29V124.63a6.4,6.4,0,0,0-.23-2.17,3,3,0,0,0-1.29-1.1l-3.42-1.83.38-5.7.76-.15.83-.15q3.58-.69,7.57-1.33t6.57-.8a12.68,12.68,0,0,1,.91,3.65,17.7,17.7,0,0,1,5.06-2.89,15.41,15.41,0,0,1,5.35-1q7.6,0,11.67,5.36T286,131.77q0,10.26-5.63,15.69t-16.26,5.44q-1.14,0-3.57-.15v4.18a6.88,6.88,0,0,0,.22,2.2,2.67,2.67,0,0,0,1.3,1.06l4.48,2.51-.3,5.32h-22.8Zm28.8-18.31a30.38,30.38,0,0,0,1-4.6,34.18,34.18,0,0,0,.41-5.06q0-5.85-2-9a6.28,6.28,0,0,0-5.59-3.19,13.23,13.23,0,0,0-5.16,1.29v20.67a17.43,17.43,0,0,0,11.32-.07Z"/><path class="cls-1" d="M293,149.82a9.47,9.47,0,0,1-3.11-7.33q0-6,6-9.43t17.59-3.87a18,18,0,0,0-.57-5.29,3.67,3.67,0,0,0-2-2.35,12,12,0,0,0-4.52-.65,29.23,29.23,0,0,0-4.41.23l-3.12,6.16-5.62-.38a99,99,0,0,1-1.82-12.62,59.27,59.27,0,0,1,9.31-2.28,57.76,57.76,0,0,1,9.46-.84q8.06,0,11.55,3.16t3.5,10.45v15.88a4.67,4.67,0,0,0,.26,1.9,2.92,2.92,0,0,0,1.18,1.07l3,1.74-.3,4.72a83.22,83.22,0,0,1-13.91,2.28c-.1-.31-.26-.85-.46-1.64s-.38-1.53-.53-2.24a27.66,27.66,0,0,1-6.5,3,21.9,21.9,0,0,1-6.73,1.14A11.8,11.8,0,0,1,293,149.82ZM313.7,142l-.3-5.78c-1.22-.1-2-.15-2.44-.15a32,32,0,0,0-4.78.42,28.11,28.11,0,0,0-4.34.95,8.31,8.31,0,0,0-.23,1.82,4.79,4.79,0,0,0,1.26,3.54,4.71,4.71,0,0,0,3.46,1.25A17.91,17.91,0,0,0,313.7,142Z"/><path class="cls-1" d="M336.8,147.24q-4.86-5.44-4.86-15,0-10,5.2-15.51t14.25-5.55a39.76,39.76,0,0,1,14.67,3.12q-.15,2.2-.68,5.81t-1.14,6.65l-5.09.46-4.72-6a21.18,21.18,0,0,0-4.25-.38,25.25,25.25,0,0,0-3.5.22c-1.16,2.23-1.75,5.37-1.75,9.43s.74,7.23,2.21,9.23,3.7,3,6.69,3a25.46,25.46,0,0,0,5.16-.64,42.15,42.15,0,0,0,6.24-1.86l1.82,7.6a26.79,26.79,0,0,1-7.56,3.49,31.09,31.09,0,0,1-9,1.37Q341.66,152.67,336.8,147.24Z"/><path class="cls-1" d="M378.75,149.36q-3.19-3.3-3.19-10.07V120.83h-5.32v-5.55l13.68-12.47,4.41.54v8.58H401.1v9H388.33v15.66q0,3.65,1,4.86c.69.81,2,1.22,4,1.22a49.11,49.11,0,0,0,7-.69l.91,7.76a32.53,32.53,0,0,1-6.12,2.12,26.91,26.91,0,0,1-6.5.84Q381.94,152.67,378.75,149.36Z"/><rect class="cls-1" x="275.42" y="21.87" width="13.13" height="13.13" transform="translate(-0.22 54.57) rotate(-11.05)"/><rect class="cls-1" x="334.21" y="21.87" width="13.13" height="13.13" transform="translate(0.87 65.83) rotate(-11.05)"/><rect class="cls-1" x="51" y="47.56" width="13.13" height="13.13" transform="translate(-9.31 12.04) rotate(-11.05)"/><rect class="cls-1" x="54.53" y="65.64" width="13.13" height="13.13" transform="translate(-12.71 13.05) rotate(-11.05)"/><rect class="cls-1" x="58.06" y="83.72" width="13.13" height="13.13" transform="translate(-16.1 14.06) rotate(-11.05)"/><rect class="cls-1" x="61.59" y="101.8" width="13.13" height="13.13" transform="translate(-19.5 15.07) rotate(-11.05)"/><rect class="cls-1" x="65.12" y="119.88" width="13.13" height="13.13" transform="translate(-22.9 16.08) rotate(-11.05)"/><rect class="cls-1" x="21.91" y="90.78" width="13.13" height="13.13" transform="translate(-61.61 143.94) rotate(-101.05)"/><rect class="cls-1" x="39.98" y="87.25" width="13.13" height="13.13" transform="translate(-36.61 157.48) rotate(-101.05)"/><rect class="cls-1" x="76.14" y="80.19" width="13.13" height="13.13" transform="translate(13.41 184.55) rotate(-101.05)"/><rect class="cls-1" x="94.22" y="76.66" width="13.13" height="13.13" transform="translate(38.42 198.09) rotate(-101.05)"/></svg>