<svg id="musta" xmlns="http://www.w3.org/2000/svg" viewBox="0 0 226.77 151.33"><defs><style>.cls-1{fill:#231f20;}</style></defs><path class="cls-1" d="M35.34,168.55l1-.75,1.16-.91,1.15-.91c.36-.29.67-.54,1-.75l.55-.44c.93-.73,1.77-1.41,2.49-2S44,161.53,44.51,161a14.41,14.41,0,0,0,1.37-1.62,9.33,9.33,0,0,0,.92-1.54,6.76,6.76,0,0,0,.5-1.52,7.62,7.62,0,0,0,.16-1.6,7.71,7.71,0,0,0-.52-2.85,6.32,6.32,0,0,0-1.55-2.31A7.32,7.32,0,0,0,42.83,148a10.19,10.19,0,0,0-3.56-.57,14.38,14.38,0,0,0-2.62.22,11.62,11.62,0,0,0-2.37.67A14.76,14.76,0,0,0,32,149.48a25,25,0,0,0-2.44,1.73l1.75,2.64a24.31,24.31,0,0,1,2.21-1.48,11.87,11.87,0,0,1,1.81-.88,7.46,7.46,0,0,1,1.62-.42A10.22,10.22,0,0,1,38.5,151a6.42,6.42,0,0,1,2,.31,4.38,4.38,0,0,1,1.53.86,3.85,3.85,0,0,1,1,1.35,4.13,4.13,0,0,1,.35,1.74,5.33,5.33,0,0,1-.12,1.12,4.71,4.71,0,0,1-.41,1.13,6.81,6.81,0,0,1-.78,1.21A17.17,17.17,0,0,1,40.83,160c-.49.49-1.07,1-1.75,1.59s-1.45,1.19-2.34,1.88l-1.11.86-1.28,1-1.34,1-1.33,1-3.09,2.3L29,172.1H48.29l.37-3.11H34.77Z" transform="translate(-28.35 -28.35)"/><path class="cls-1" d="M65.09,147.47a14.1,14.1,0,0,0-3.58.44,11.62,11.62,0,0,0-3,1.24,11.09,11.09,0,0,0-2.42,1.94,11.47,11.47,0,0,0-1.79,2.55,13.64,13.64,0,0,0-1.1,3.05,15.3,15.3,0,0,0-.38,3.44,18.54,18.54,0,0,0,.66,5.15,10.08,10.08,0,0,0,2,3.84,8.85,8.85,0,0,0,3.5,2.41,14,14,0,0,0,5.06.83,14.43,14.43,0,0,0,3.65-.44,12,12,0,0,0,3-1.24,10.15,10.15,0,0,0,2.41-2,11.1,11.1,0,0,0,1.76-2.58A12.35,12.35,0,0,0,76,163a16.33,16.33,0,0,0,.37-3.56q0-5.91-2.79-9T65.09,147.47Zm6.4,16.47a8.52,8.52,0,0,1-1.54,3,6.09,6.09,0,0,1-2.37,1.75,7.76,7.76,0,0,1-3.06.58,8.7,8.7,0,0,1-3.41-.61,5.68,5.68,0,0,1-2.32-1.8,7.85,7.85,0,0,1-1.32-2.95,17.84,17.84,0,0,1-.41-4.09,13,13,0,0,1,.51-3.75,8.41,8.41,0,0,1,1.5-2.92,6.77,6.77,0,0,1,2.45-1.88,7.74,7.74,0,0,1,3.31-.67,6.56,6.56,0,0,1,5.4,2.24Q72,155.08,72,159.66A14.64,14.64,0,0,1,71.49,163.94Z" transform="translate(-28.35 -28.35)"/><polygon class="cls-1" points="51.57 123.07 58.25 123.28 58.25 143.76 62.4 143.76 62.4 119.81 51.67 120.21 51.57 123.07"/><path class="cls-1" d="M114.65,148.1l-3.84-.31c-2.44,3.16-4.88,6.32-7.33,9.45l-7.35,9.42.58,2.9h13.94v10.11l4-.2v-9.91h4.25l.2-3.05h-4.45Zm-4,18.41H100q2.7-3.44,5.33-6.85l5.29-6.84Z" transform="translate(-28.35 -28.35)"/><polygon class="cls-1" points="94.07 132.3 118.96 132.3 119.16 129.46 94.38 129.46 94.07 132.3"/><path class="cls-1" d="M157.77,168.55l1-.75,1.15-.91,1.16-.91c.36-.29.67-.54.95-.75l.55-.44c.93-.73,1.76-1.41,2.49-2s1.36-1.23,1.91-1.79a15.73,15.73,0,0,0,1.38-1.62,9.17,9.17,0,0,0,.9-1.54,6.33,6.33,0,0,0,.51-1.52,7.62,7.62,0,0,0,.16-1.6,7.71,7.71,0,0,0-.52-2.85,6.32,6.32,0,0,0-1.55-2.31,7.32,7.32,0,0,0-2.56-1.54,10.19,10.19,0,0,0-3.56-.57,14.46,14.46,0,0,0-2.62.22,11.62,11.62,0,0,0-2.37.67,14.34,14.34,0,0,0-2.31,1.17,25,25,0,0,0-2.45,1.73l1.76,2.64a24.31,24.31,0,0,1,2.21-1.48,11.87,11.87,0,0,1,1.81-.88,7.46,7.46,0,0,1,1.62-.42,10.22,10.22,0,0,1,1.58-.12,6.31,6.31,0,0,1,2,.31,4.34,4.34,0,0,1,1.54.86,4,4,0,0,1,1,1.35,4.13,4.13,0,0,1,.35,1.74,5.33,5.33,0,0,1-.12,1.12,4.71,4.71,0,0,1-.41,1.13,7.43,7.43,0,0,1-.78,1.21,17.17,17.17,0,0,1-1.23,1.36c-.49.49-1.08,1-1.75,1.59s-1.46,1.19-2.34,1.88l-1.11.86-1.28,1-1.35,1-1.32,1-3.09,2.3.37,2.44h19.34l.36-3.11H157.2C157.31,168.91,157.5,168.77,157.77,168.55Z" transform="translate(-28.35 -28.35)"/><path class="cls-1" d="M187.53,147.47a14.1,14.1,0,0,0-3.58.44,11.76,11.76,0,0,0-3,1.24,10.86,10.86,0,0,0-2.42,1.94,11.15,11.15,0,0,0-1.79,2.55,13.64,13.64,0,0,0-1.1,3.05,15.3,15.3,0,0,0-.38,3.44,18.54,18.54,0,0,0,.66,5.15,10.08,10.08,0,0,0,2,3.84,8.78,8.78,0,0,0,3.5,2.41,14,14,0,0,0,5.06.83,14.43,14.43,0,0,0,3.65-.44,12.12,12.12,0,0,0,3-1.24,10.15,10.15,0,0,0,2.41-2,11.1,11.1,0,0,0,1.76-2.58,13.19,13.19,0,0,0,1.07-3.12,17,17,0,0,0,.37-3.56q0-5.91-2.79-9C194.15,148.48,191.32,147.47,187.53,147.47Zm6.4,16.47a8.52,8.52,0,0,1-1.54,3,6.16,6.16,0,0,1-2.37,1.75,7.76,7.76,0,0,1-3.06.58,8.7,8.7,0,0,1-3.41-.61,5.68,5.68,0,0,1-2.32-1.8,7.85,7.85,0,0,1-1.32-2.95,17.8,17.8,0,0,1-.42-4.09,13,13,0,0,1,.52-3.75,8.41,8.41,0,0,1,1.5-2.92,6.77,6.77,0,0,1,2.45-1.88,7.77,7.77,0,0,1,3.31-.67,6.53,6.53,0,0,1,5.39,2.24c1.22,1.5,1.82,3.78,1.82,6.83A14.64,14.64,0,0,1,193.93,163.94Z" transform="translate(-28.35 -28.35)"/><path class="cls-1" d="M209.51,168.55l1-.75,1.16-.91,1.15-.91c.36-.29.67-.54.95-.75l.55-.44c.94-.73,1.76-1.41,2.49-2s1.36-1.23,1.91-1.79a15.73,15.73,0,0,0,1.38-1.62,9.25,9.25,0,0,0,.91-1.54,6.76,6.76,0,0,0,.5-1.52,7.62,7.62,0,0,0,.16-1.6,7.71,7.71,0,0,0-.52-2.85,6.32,6.32,0,0,0-1.55-2.31A7.32,7.32,0,0,0,217,148a10.19,10.19,0,0,0-3.56-.57,14.46,14.46,0,0,0-2.62.22,11.53,11.53,0,0,0-2.36.67,14.43,14.43,0,0,0-2.32,1.17,25,25,0,0,0-2.44,1.73l1.76,2.64a23,23,0,0,1,2.2-1.48,11.87,11.87,0,0,1,1.81-.88,7.6,7.6,0,0,1,1.62-.42,10.22,10.22,0,0,1,1.58-.12,6.37,6.37,0,0,1,2,.31,4.52,4.52,0,0,1,1.54.86,4.11,4.11,0,0,1,1,1.35,4.29,4.29,0,0,1,.34,1.74,5.32,5.32,0,0,1-.11,1.12,5.24,5.24,0,0,1-.42,1.13,6.81,6.81,0,0,1-.78,1.21A17.17,17.17,0,0,1,215,160c-.49.49-1.07,1-1.75,1.59s-1.45,1.19-2.34,1.88l-1.11.86-1.28,1-1.34,1-1.33,1-3.09,2.3.37,2.44h19.34l.37-3.11h-13.9Z" transform="translate(-28.35 -28.35)"/><path class="cls-1" d="M239.27,147.47a14.12,14.12,0,0,0-3.59.44,11.76,11.76,0,0,0-3,1.24,10.91,10.91,0,0,0-4.2,4.49,13.18,13.18,0,0,0-1.11,3.05,15.3,15.3,0,0,0-.38,3.44,18.54,18.54,0,0,0,.66,5.15,10.08,10.08,0,0,0,2,3.84,8.85,8.85,0,0,0,3.5,2.41,14,14,0,0,0,5.07.83,14.41,14.41,0,0,0,3.64-.44,12,12,0,0,0,3-1.24,10,10,0,0,0,2.41-2,11.1,11.1,0,0,0,1.76-2.58,12.77,12.77,0,0,0,1.08-3.12,17,17,0,0,0,.36-3.56q0-5.91-2.79-9C245.88,148.48,243.05,147.47,239.27,147.47Zm6.39,16.47a8.51,8.51,0,0,1-1.53,3,6.12,6.12,0,0,1-2.38,1.75,7.75,7.75,0,0,1-3.05.58,8.72,8.72,0,0,1-3.42-.61,5.68,5.68,0,0,1-2.32-1.8,7.69,7.69,0,0,1-1.31-2.95,17.8,17.8,0,0,1-.42-4.09,13,13,0,0,1,.51-3.75,8.43,8.43,0,0,1,1.51-2.92,6.65,6.65,0,0,1,2.44-1.88,7.74,7.74,0,0,1,3.31-.67,6.55,6.55,0,0,1,5.4,2.24q1.82,2.25,1.82,6.83A14.62,14.62,0,0,1,245.66,163.94Z" transform="translate(-28.35 -28.35)"/><path class="cls-1" d="M216.23,124.38c0,7.74,5.13,11,11.1,11a19.6,19.6,0,0,0,14.83-6.72c0,4.29,1.58,6.34,5.78,6.34a22.21,22.21,0,0,0,7.18-1.21l-.28-3.45a28.16,28.16,0,0,1-5.69.65c-2.05,0-2.33-.74-2.33-2.89l.09-25.93c0-7.27-3.17-11.19-10.54-11.19a27.92,27.92,0,0,0-18,6l2.34,3.27A25.22,25.22,0,0,1,235.35,95c4.85,0,7.09,2.24,7,7.65l-.09,10.07C219.31,114.21,216.23,118.5,216.23,124.38Zm25.83.09c-2.7,3.55-8.39,7.18-13.34,7.18-5.22,0-7.83-3.17-7.83-7.83,0-4.48,6-6.34,21.27-7.37Z" transform="translate(-28.35 -28.35)"/><path class="cls-1" d="M188.63,125.4c0,6.81,2.89,9.89,9.42,9.89a22.06,22.06,0,0,0,11.65-3.17l-1.3-3.64a20.12,20.12,0,0,1-9.42,2.71c-4.1,0-5.69-1.68-5.69-6.25v-29h14.92l.28-4.11h-15.2V77.28l-3.82.38-.84,14.26-5.78.38-.38,3.26,6.16.19Z" transform="translate(-28.35 -28.35)"/><path class="cls-1" d="M170.82,135a22,22,0,0,0,7.09-1l-.28-3.45a28.38,28.38,0,0,1-5.69.55c-2,0-2.24-.74-2.24-2.79l-.29-59.5-4.67.37.3,59.22C165,133.05,166.62,135,170.82,135Z" transform="translate(-28.35 -28.35)"/><path class="cls-1" d="M126.34,72.06h-4.57v37.3c0,14.09-4.94,21.73-19.21,21.73-13.8,0-18.47-7-18.47-20.7V72.06H79.34v39.17c0,15.48,5.59,24,23,24,16.78,0,24-10.45,24-25.56Z" transform="translate(-28.35 -28.35)"/><rect class="cls-1" x="113.66" y="70.01" width="7.37" height="6.25"/><polygon class="cls-1" points="37.48 102.37 6.89 102.37 6.89 75.7 33.37 75.7 33.37 71.69 6.89 71.69 6.89 47.63 37.48 47.63 37.76 43.71 2.04 43.71 2.04 106.29 37.76 106.29 37.48 102.37"/><rect class="cls-1" x="113.66" y="94.08" width="7.37" height="6.25"/><path class="cls-1" d="M234.66,51.51a1.9,1.9,0,0,0,1.89,2.13,4.08,4.08,0,0,0,2.77-1.09V49.49c-4.32.38-4.66.84-4.66,2m-.84,6.62c-3.23,0-5.87-2.43-5.87-6.41,0-3,1.63-5,11.41-5.75V44c0-1.34-.38-1.72-1.43-1.72a12.53,12.53,0,0,0-6.63,2.27l-2.64-4.2a17.71,17.71,0,0,1,11-3.39c5.12,0,6.84,2.51,6.84,6.5V52c0,.5.42.63,2.23,1L247.58,58c-.75,0-1.42,0-2,0-3.86,0-5.25-.8-6-2.35a7,7,0,0,1-5.79,2.43m-21.64-6.62a1.9,1.9,0,0,0,1.88,2.13,4.06,4.06,0,0,0,2.77-1.09V49.49c-4.32.38-4.65.84-4.65,2m-.84,6.62c-3.23,0-5.88-2.43-5.88-6.41,0-3,1.64-5,11.41-5.75V44c0-1.34-.37-1.72-1.42-1.72a12.5,12.5,0,0,0-6.63,2.27l-2.64-4.2a17.69,17.69,0,0,1,11-3.39c5.11,0,6.84,2.51,6.84,6.5V52c0,.5.42.63,2.22,1L225.1,58c-.76,0-1.43,0-2,0-3.86,0-5.24-.8-6-2.35a7,7,0,0,1-5.79,2.43M195.1,44.42c0-1.09-.46-1.43-1.34-1.43a6,6,0,0,0-3.31,1.68V57.8h-6.89V44.42c0-1.09-.46-1.43-1.34-1.43a6.09,6.09,0,0,0-3.35,1.68V57.8H172V37.54l6.12-.34A14.15,14.15,0,0,1,178.7,40c2.1-1.76,4.4-3,6.5-3,3.23,0,4.45,1.34,5,3.1,1.64-1.51,4.24-3.1,6.38-3.1,4.16,0,5.46,1.89,5.46,5.62V57.8H195.1Zm-34.65-16h6.8v6h-6.8Zm-.09,29.41V37.7l7-.33V57.8ZM146.48,42.07c-2,0-3.1,1.67-3.1,5.28,0,4.41.71,5.88,2.89,5.88,2.35,0,3.19-1.72,3.19-5.84s-.88-5.32-3-5.32m-.58,16.06c-6.84,0-9.91-3.35-9.91-10.23,0-6.5,4.07-10.82,10.83-10.82s10,3.22,10,10.1c0,6.3-3.82,11-10.94,11M124.25,48a8.23,8.23,0,0,1,.37,2.18A8.05,8.05,0,0,1,125,48l3.44-10.36h6.42L127.27,57.8h-6.46l-7.18-20.18h7.43ZM92.83,37.7l7.17-.29V50.75c0,1.09.33,1.47,1.22,1.47s1.8-.5,3.1-1.55v-13l7.13-.29V57.63l-6.29.38a18.92,18.92,0,0,1-.59-2.77,10.63,10.63,0,0,1-6.42,2.94c-3.86,0-5.32-1.85-5.32-5.88Zm-13.72,5a4.87,4.87,0,0,0-2.73,1v9.15a8.52,8.52,0,0,0,2.18.29c2.35,0,3.53-1.51,3.53-5.58,0-3.35-1.18-4.9-3-4.9m-.25,15.14c-.51,0-2.06,0-2.48-.08v4.76l-7.17.38V37.54l6.29-.34A13.24,13.24,0,0,1,76,39.55a8.42,8.42,0,0,1,6-2.56c4.15,0,7.21,2.77,7.21,10,0,5.79-2.6,10.82-10.44,10.82M57.67,28.39h6.8v6h-6.8ZM57.59,57.8V37.7l7-.33V57.8Zm-9-29.45h7L44.88,57.8H37.83L28.35,28.35h8.39l5.12,18.12a8.92,8.92,0,0,1,.29,2.14,7.46,7.46,0,0,1,.42-2.14Z" transform="translate(-28.35 -28.35)"/></svg>